<svg xmlns="http://www.w3.org/2000/svg" width="512" height="512" viewBox="0 0 512 512"><g clip-path="#b" opacity=".1"><path fill="#d9e021" d="M145.08 547.82c-.83 0-1.63-.43-2.08-1.19-10.99-18.79-.34-34.07.12-34.71a2.41 2.41 0 0 1 3.92 2.8c-.41.59-9.24 13.49.12 29.48a2.4 2.4 0 0 1-2.07 3.62"/><path fill="#d9e021" d="M122.44 509.57c-10.7-3.62-22.26 1.47-23.99 2.29a187.57 187.57 0 0 1 15.93 3.77c1.99.58 4.04 1.04 5.88 1.72.91.37 1.79.72 2.58 1.17.8.43 1.56.82 2.23 1.27.67.44 1.28.84 1.79 1.27.51.43.95.78 1.28 1.14.66.72.97 1.16.97 1.16l-.2.25s-.54-.14-1.38-.43l-3.54-1.06c-.72-.24-1.53-.45-2.34-.74-.83-.27-1.71-.56-2.59-.91-1.77-.72-3.6-1.64-5.51-2.41-3.8-1.56-7.67-2.97-10.55-4.1l-4.68-1.76c.83 1.61 6.92 12.77 17.69 16.42 11.61 3.93 24.24-2.4 24.24-2.4s-6.19-12.7-17.79-16.63m62.35-440.68c.05-2.06-.06-4.15-.34-6.27a39.48 39.48 0 0 0-36.82-33.98 39.32 39.32 0 0 0-41.47 39.26v.6a25.8 25.8 0 0 1-8.52 19.5c-12.13 11.05-19.63 26.32-19.63 43.19 0 33.74 30.01 61.1 67.03 61.1s67.03-27.35 67.03-61.1c0-16.65-7.3-31.74-19.15-42.75a25.61 25.61 0 0 1-8.14-19.53"/><path fill="#fff" d="M126.52 77.55a2.4 2.4 0 0 1-2.09-1.21c-7.65-13.39 2.05-24.74 8.24-28.88a2.4 2.4 0 1 1 2.67 4.01c-.61.41-14.05 9.68-6.74 22.48a2.4 2.4 0 0 1-2.09 3.6m-22.46 77.03c-.84 0-1.65-.44-2.1-1.22-17.73-31.2-3.01-51.45 7.25-57.8a2.4 2.4 0 1 1 2.53 4.09c-1.1.69-25.39 16.51-5.6 51.33a2.4 2.4 0 0 1-2.09 3.59"/><path fill="#d9e021" d="M145.08 35.82c-.83 0-1.63-.43-2.08-1.19-10.99-18.79-.34-34.07.12-34.71a2.4 2.4 0 1 1 3.92 2.79c-.41.59-9.24 13.49.12 29.48a2.4 2.4 0 0 1-2.07 3.62"/><path fill="#d9e021" d="M122.44-2.43c-10.7-3.62-22.26 1.47-23.99 2.28a187.57 187.57 0 0 1 15.93 3.77c1.99.58 4.04 1.04 5.88 1.72.91.37 1.79.72 2.58 1.17.8.43 1.56.82 2.23 1.27.67.44 1.28.83 1.79 1.27.51.43.95.78 1.28 1.14.66.72.97 1.16.97 1.16l-.2.25s-.54-.14-1.38-.43l-3.54-1.06c-.72-.24-1.53-.45-2.34-.74-.83-.27-1.71-.56-2.59-.91-1.77-.71-3.6-1.64-5.51-2.41-3.8-1.56-7.67-2.97-10.55-4.1L98.32.19c.83 1.61 6.92 12.77 17.69 16.42 11.61 3.93 24.24-2.4 24.24-2.4s-6.19-12.7-17.79-16.63"/><path fill="#e69200" d="M409.64 314.47c0 40.31-30.72 72.99-68.62 72.99-35.61 0-64.88-28.86-68.29-65.78l.16.47c9.81 25.45 45.42 35.21 79.52 21.79 34.12-13.42 53.83-44.92 44.01-70.37a36.22 36.22 0 0 0-3.58-6.95c10.48 12.81 16.8 29.53 16.8 47.86"/><path fill="#e69200" d="M392.38 270.18c9.62 24.71-9.7 55.3-43.15 68.32-33.45 13.02-68.37 3.55-77.99-21.16-9.62-24.71 9.7-55.3 43.15-68.32 33.45-13.02 68.37-3.55 77.99 21.16"/><path fill="#fcfff5" d="m304.2 268.16 23.69 19.32c2.43 3.44 6.24 1.94 5.73-2.25l4.58-31.11c.35-4.51-4.23-7.48-9.85-6.36-5.44 1.09-12.76 3.59-21.34 9.12-4.73 3.05-6.04 8.25-2.82 11.29m-17.03 37.05 37.19-10.8c5.41-.64 6.36-3.86 1.44-4.83l-30.84-13.24c-4.69-1.69-11.03.64-13.63 5.03a33.63 33.63 0 0 0-4.56 18.22c.11 4.37 4.9 6.97 10.4 5.63m28.85 24.07 13.5-30.12c2.98-4.08.12-5.8-4.29-2.58l-35.42 17.88c-5.03 2.82-6.8 8.12-3.78 11.38 2.92 3.16 8 6.71 16.78 9.1 4.84 1.32 10.94-1.29 13.22-5.66m45.89-12.99-23.69-19.32c-2.43-3.44-6.24-1.94-5.73 2.25l-4.58 31.11c-.35 4.51 4.23 7.48 9.85 6.36 5.44-1.09 12.76-3.59 21.34-9.12 4.73-3.05 6.04-8.25 2.82-11.29m17.03-37.05-37.19 10.8c-5.41.64-6.36 3.86-1.44 4.83l30.84 13.24c4.69 1.69 11.03-.64 13.63-5.03a33.55 33.55 0 0 0 4.56-18.22c-.11-4.37-4.9-6.97-10.4-5.63m-28.86-24.06-13.5 30.12c-2.98 4.08-.12 5.8 4.29 2.58L376.3 270c5.03-2.82 6.8-8.12 3.78-11.38-2.92-3.16-8-6.71-16.78-9.1-4.84-1.32-10.94 1.29-13.22 5.66"/><path fill="#ffd34e" d="M544.47 140.95c8.11 20.83-8.18 46.6-36.37 57.58-28.19 10.97-57.62 2.99-65.72-17.84s8.18-46.6 36.37-57.58c28.19-10.97 57.62-2.99 65.72 17.84"/><path fill="#fcfff5" d="m470.16 139.25 19.96 16.28c2.05 2.9 5.26 1.64 4.83-1.9l3.86-26.22c.29-3.8-3.56-6.3-8.3-5.36-4.58.91-10.75 3.02-17.98 7.69-3.99 2.57-5.09 6.96-2.37 9.51m-14.36 31.24 31.34-9.11c4.56-.54 5.36-3.25 1.21-4.07l-25.99-11.16c-3.95-1.43-9.3.54-11.49 4.24a28.28 28.28 0 0 0-3.84 15.35c.09 3.68 4.13 5.87 8.77 4.75m24.32 20.29 11.38-25.38c2.51-3.44.1-4.88-3.62-2.17l-29.85 15.06c-4.24 2.38-5.73 6.84-3.19 9.59 2.46 2.66 6.74 5.65 14.14 7.67 4.08 1.11 9.22-1.08 11.14-4.77m38.68-10.95-19.96-16.28c-2.05-2.9-5.26-1.64-4.83 1.9l-3.86 26.22c-.29 3.8 3.56 6.3 8.3 5.36 4.58-.91 10.75-3.02 17.98-7.69 3.99-2.57 5.09-6.96 2.37-9.51m14.36-31.23-31.34 9.1c-4.56.54-5.36 3.25-1.21 4.07l25.99 11.16c3.95 1.43 9.3-.54 11.49-4.24a28.28 28.28 0 0 0 3.84-15.35c-.09-3.68-4.13-5.87-8.77-4.74m-24.32-20.29-11.38 25.38c-2.51 3.44-.1 4.88 3.62 2.17l29.85-15.06c4.24-2.38 5.74-6.84 3.19-9.59-2.46-2.66-6.74-5.65-14.14-7.67-4.08-1.11-9.22 1.08-11.14 4.77"/><path fill="#ffd34e" d="M559.02 178.28a63.48 63.48 0 0 0-14.16-40.33 30.6 30.6 0 0 1 3.02 5.86c8.28 21.45-8.33 48-37.08 59.31-28.74 11.31-58.75 3.08-67.02-18.37a3.7 3.7 0 0 1-.14-.39c2.87 31.12 27.54 55.44 57.55 55.44 1.87 0 3.73-.1 5.56-.29 3.83-.4 7.54.96 10.5 3.42a11.36 11.36 0 0 0 7.29 2.57c5.98 0 10.82-4.39 10.82-9.8v-.07a16.26 16.26 0 0 1 4.82-11.92c11.58-11.24 18.84-27.43 18.84-45.42"/><path fill="#0076a3" d="M202.12 415.43a2.42 2.42 0 0 0 1.15-2.11c-.5-21.76-17.58-29.19-18.31-29.49a2.4 2.4 0 0 0-1.87 4.44c.66.28 14.94 6.64 15.36 25.16a2.4 2.4 0 0 0 3.67 1.99"/><path fill="#0076a3" d="M201.33 370.99c7.21-8.7 19.72-10.42 21.62-10.64a195.4 195.4 0 0 0-11.59 11.56c-1.4 1.54-2.89 3.01-4.1 4.55-.58.79-1.14 1.55-1.59 2.35-.46.78-.9 1.51-1.23 2.25-.34.73-.65 1.38-.86 2.02-.21.63-.4 1.16-.49 1.64-.18.96-.22 1.49-.22 1.49l.3.11s.39-.41.95-1.09l2.46-2.76c.49-.58 1.06-1.19 1.61-1.86.56-.66 1.16-1.37 1.72-2.13 1.13-1.53 2.21-3.29 3.42-4.94 2.41-3.32 4.97-6.55 6.84-9.03l3.06-3.96c.14 1.81.8 14.51-6.45 23.25-7.82 9.43-21.9 10.66-21.9 10.66s-1.39-14.06 6.43-23.49m33.9 85.19c0 27.33-16.24 50.06-37.7 54.85h-.02c-21.46-4.78-37.71-27.52-37.71-54.85s16.26-50.07 37.71-54.85h.02c21.46 4.8 37.7 27.52 37.7 54.85"/><path fill="#0076a3" d="M256.02 456.16c0 30.8-20.66 55.77-46.12 55.77-2.87 0-5.66-.32-8.39-.92 21.46-4.78 37.71-27.52 37.71-54.85s-16.26-50.07-37.71-54.85c2.73-.59 5.52-.92 8.39-.92 25.47 0 46.12 24.97 46.12 55.77"/><path fill="#dc3522" d="M85.54 310.89c-10.7-3.62-22.25 1.47-23.99 2.29a187.57 187.57 0 0 1 15.93 3.77c1.99.58 4.04 1.04 5.88 1.72.91.37 1.79.72 2.58 1.17.81.42 1.56.82 2.23 1.27.67.44 1.28.83 1.79 1.27.51.43.95.78 1.28 1.14.66.72.97 1.16.97 1.16l-.2.25s-.55-.14-1.38-.43l-3.54-1.06c-.72-.24-1.53-.45-2.34-.74-.82-.27-1.7-.56-2.59-.91-1.77-.71-3.6-1.64-5.51-2.41-3.8-1.56-7.67-2.97-10.55-4.1l-4.68-1.76c.83 1.61 6.93 12.78 17.69 16.42 11.61 3.93 24.24-2.4 24.24-2.4s-6.19-12.7-17.79-16.63m78.76 1.21a30.44 30.44 0 0 1-30.49 30.49c-16.83 0-30.49-13.64-30.49-30.49s12.74-29.56 28.78-30.44a30.32 30.32 0 0 1 22.31 7.96 30.34 30.34 0 0 1 9.9 22.48m24.6-50c0 2.65-.34 5.23-.98 7.69a26.56 26.56 0 0 0-3.6-.23c-24.1 0-23.78 20.75-30.73 14.43a30.32 30.32 0 0 0-22.31-7.96 30.5 30.5 0 1 1 57.61-13.93"/><path fill="#dc3522" d="M215.65 305.69a30.49 30.49 0 0 1-51.08 22.5 30.44 30.44 0 0 0 .88-30.6 30.1 30.1 0 0 0-6.21-7.96 30.45 30.45 0 0 1 29.52-14.2 30.5 30.5 0 0 1 26.9 30.27"/><path fill="#fff" d="M164.32 258.91a9.62 9.62 0 1 1-19.23 0 9.62 9.62 0 0 1 19.23 0"/><path fill="#dc3522" d="M159.24 258.91a4.54 4.54 0 1 1-9.07 0 4.54 4.54 0 0 1 9.07 0"/><path fill="#fff" d="M206.69 305.69a9.62 9.62 0 1 1-19.23 0 9.62 9.62 0 0 1 19.23 0"/><path fill="#dc3522" d="M201.6 305.69a4.54 4.54 0 1 1-9.07 0 4.54 4.54 0 0 1 9.07 0"/><path fill="#fff" d="M136.08 324.94a9.62 9.62 0 1 1-19.25 0 9.62 9.62 0 0 1 19.25 0"/><path fill="#dc3522" d="M130.99 324.94a4.54 4.54 0 1 1-9.09 0 4.54 4.54 0 0 1 9.09 0m15.97-95.2c-.14-3.98-.13-17.24 6.15-20.84l3.2 5.57c-1.94 1.11-3.14 8.86-2.93 15.05l-6.42.23Zm84.76 65.23c-1.43-1.73-9.27-1.61-15.32-.35l-1.31-6.28c3.9-.82 16.97-3.04 21.58 2.54l-4.95 4.09Z"/><path fill="#468966" d="M76.15 397.11c-19.56-6.62-40.67 2.69-43.84 4.18a354.05 354.05 0 0 1 29.11 6.88c3.65 1.05 7.38 1.9 10.75 3.15 1.66.68 3.27 1.32 4.72 2.14 1.47.78 2.85 1.49 4.07 2.33 1.23.81 2.34 1.53 3.27 2.32.93.79 1.73 1.43 2.34 2.08a25.92 25.92 0 0 1 1.77 2.12l-.36.46s-.99-.26-2.52-.79l-6.48-1.94c-1.31-.43-2.79-.83-4.28-1.35a71.32 71.32 0 0 1-4.73-1.67c-3.23-1.31-6.59-3-10.06-4.41-6.94-2.86-14.02-5.43-19.29-7.49l-8.56-3.22c1.52 2.94 12.66 23.35 32.32 30 21.21 7.18 44.29-4.39 44.29-4.39s-11.31-23.21-32.52-30.39m174.83-205.61c-19.56-6.62-40.67 2.69-43.84 4.18a356.3 356.3 0 0 1 29.12 6.88c3.65 1.05 7.38 1.9 10.75 3.15 1.66.68 3.27 1.32 4.72 2.14 1.47.78 2.85 1.49 4.07 2.33 1.23.81 2.34 1.52 3.27 2.32.93.79 1.73 1.43 2.34 2.08a25.92 25.92 0 0 1 1.77 2.12l-.36.46s-.99-.26-2.52-.79l-6.48-1.94c-1.31-.43-2.79-.83-4.28-1.35a71.32 71.32 0 0 1-4.73-1.67c-3.23-1.31-6.59-3-10.06-4.41-6.94-2.86-14.02-5.43-19.29-7.49l-8.56-3.22c1.52 2.94 12.66 23.35 32.32 30 21.21 7.18 44.29-4.39 44.29-4.39s-11.31-23.21-32.52-30.39m204.35 97.44c-5.4 19.93 5.2 40.43 6.88 43.5.13-1.04.54-4.37 1.27-8.99a346.9 346.9 0 0 1 3.8-20.49c.83-3.7 1.44-7.49 2.48-10.92.58-1.7 1.11-3.34 1.84-4.84.69-1.52 1.31-2.93 2.07-4.2.73-1.28 1.38-2.43 2.11-3.41s1.32-1.82 1.93-2.46c1.24-1.28 2-1.9 2-1.9l.48.33s-.2 1.01-.64 2.56l-1.53 6.59c-.35 1.33-.65 2.83-1.08 4.36a80 80 0 0 1-1.37 4.82c-1.1 3.3-2.58 6.76-3.77 10.32-2.42 7.1-4.56 14.33-6.29 19.71l-2.69 8.74c2.84-1.7 22.52-14.08 27.95-34.12 5.85-21.62-7.12-43.94-7.12-43.94s-22.47 12.72-28.32 34.34"/><path fill="#7d8a2e" d="M329.4 436.61c-16.23 12.77-19.97 35.54-20.45 39.01a352.23 352.23 0 0 1 21.67-20.63c2.88-2.48 5.63-5.14 8.51-7.28 1.48-1.02 2.89-2.02 4.37-2.79 1.45-.81 2.8-1.57 4.17-2.14 1.35-.59 2.55-1.13 3.73-1.47 1.17-.35 2.14-.67 3.02-.82 1.76-.29 2.74-.33 2.74-.33l.19.56s-.76.69-2.04 1.68l-5.16 4.37c-1.08.86-2.22 1.88-3.47 2.85-1.24.99-2.56 2.05-3.98 3.05-2.86 1.99-6.11 3.88-9.19 6.02-6.18 4.25-12.2 8.77-16.81 12.06l-7.37 5.41c3.3.33 26.47 2.15 42.79-10.68 17.6-13.85 20.52-39.5 20.52-39.5s-25.62-3.21-43.22 10.64M459.21 63.48c7.56 19.22 28.29 29.34 31.48 30.8a354.98 354.98 0 0 1-13.53-26.68c-1.55-3.47-3.31-6.87-4.53-10.24-.55-1.71-1.1-3.35-1.41-4.99-.35-1.63-.7-3.14-.84-4.61a33.56 33.56 0 0 1-.34-4c0-1.22-.03-2.25.08-3.13.23-1.77.48-2.72.48-2.72l.59-.02s.44.93 1.02 2.44l2.7 6.2c.51 1.28 1.17 2.66 1.73 4.14.6 1.47 1.23 3.04 1.78 4.69 1.08 3.31 1.96 6.97 3.12 10.53 2.3 7.15 4.89 14.21 6.72 19.57l3.06 8.62c1.27-3.06 9.67-24.73 2.07-44.06-8.2-20.84-31.93-31.01-31.93-31.01s-10.44 23.62-2.24 44.45"/><path fill="#193441" d="M492.2 485.2c2.11 9.14 10.74 15.07 12.07 15.94-.17-.45-.72-1.87-1.42-3.87-.88-2.43-1.9-5.71-2.87-9.02-.46-1.66-1.03-3.31-1.35-4.9-.13-.81-.27-1.58-.3-2.33-.05-.75-.1-1.46-.07-2.13.02-.67.03-1.27.12-1.82.08-.55.14-1.01.25-1.4.22-.78.39-1.19.39-1.19l.26.03s.14.45.3 1.16l.8 2.97c.14.61.34 1.27.5 1.98.17.7.35 1.45.48 2.22.26 1.56.41 3.26.7 4.94.55 3.36 1.25 6.71 1.71 9.24l.8 4.08c.78-1.29 6-10.46 3.88-19.65-2.29-9.91-12.26-16.07-12.26-16.07s-6.27 9.91-3.98 19.82"/><path fill="#193441" d="M458.71 429.03a25.27 25.27 0 0 1 34.83 8.24 25.3 25.3 0 1 1-34.82-8.23"/><path fill="#193441" d="M412.68 433.45a25.45 25.45 0 0 1 5.86-2.66c.4.9.88 1.78 1.41 2.64 10.51 17.02 25.02 7.75 23.59 15.41a25.19 25.19 0 0 0 4.1 19.22 25.31 25.31 0 1 1-34.96-34.62"/><path fill="#193441" d="M431.8 395.58a25.3 25.3 0 0 1 38.16 26.26 25.36 25.36 0 0 0-24.91 20.58 25.28 25.28 0 0 1-22.9-14.65 25.3 25.3 0 0 1 9.65-32.19"/><path fill="#fff" d="M421.14 452.23a7.98 7.98 0 1 1 8.4 13.59 7.98 7.98 0 0 1-8.4-13.59"/><path fill="#193441" d="M423.35 455.82a3.77 3.77 0 1 1-1.22 5.18 3.77 3.77 0 0 1 1.23-5.18"/><path fill="#fff" d="M435.7 401.91a7.99 7.99 0 1 1 8.39 13.6 7.99 7.99 0 0 1-8.39-13.6"/><path fill="#193441" d="M437.92 405.5a3.77 3.77 0 1 1-1.23 5.17 3.77 3.77 0 0 1 1.23-5.18"/><path fill="#fff" d="M480.09 443.38a7.98 7.98 0 1 1 8.4 13.59 7.98 7.98 0 0 1-8.4-13.59"/><path fill="#193441" d="M482.31 446.98a3.77 3.77 0 0 1 3.96 6.4 3.77 3.77 0 0 1-3.96-6.4m-74.2 30.23c-2.75 1.84-12.12 7.61-17.4 4.75l2.54-4.68c1.63.88 7.63-1.64 11.9-4.49l2.96 4.43Zm9.11-88.31c-.6 1.77 2.9 7.25 6.44 10.97l-3.86 3.67c-2.28-2.4-9.55-10.66-7.62-16.35l5.05 1.71Z"/><path fill="#00a388" d="M343.07 56.76c-.83 0-1.63-.43-2.08-1.19-10.99-18.78-.34-34.07.12-34.71a2.4 2.4 0 1 1 3.92 2.79c-.41.59-9.24 13.49.12 29.48a2.4 2.4 0 0 1-2.07 3.62"/><path fill="#00a388" d="M320.44 18.52c-10.7-3.62-22.25 1.47-23.99 2.29a183.72 183.72 0 0 1 15.93 3.77c2 .58 4.04 1.04 5.88 1.72.91.37 1.79.72 2.58 1.17.8.43 1.56.82 2.23 1.27.67.44 1.28.83 1.79 1.27.51.43.95.78 1.28 1.14.66.72.97 1.16.97 1.16l-.2.25s-.54-.14-1.38-.43l-3.55-1.06c-.71-.24-1.52-.45-2.34-.74-.82-.27-1.7-.56-2.59-.91-1.77-.72-3.6-1.64-5.51-2.41-3.8-1.56-7.67-2.97-10.55-4.1l-4.68-1.76c.83 1.61 6.93 12.77 17.69 16.42 11.61 3.93 24.24-2.4 24.24-2.4s-6.19-12.7-17.79-16.63m29.41 34.53c-35.15 0-73.78 28.03-73.78 63.65 0 21.08 13.53 43.15 31.86 57.65 10.83 8.57 26.14 9.82 37.82 2.43a18.72 18.72 0 0 1 17.36-1.37c11.93 5.13 25.91 2.16 35.29-6.82 14.87-14.23 25.24-33.44 25.24-51.89 0-35.62-38.63-63.65-73.78-63.65"/><path fill="#00a388" d="M364.82 181.81c0 2.62-4.07 4.74-9.09 4.74s-9.09-2.12-9.09-4.74 4.07-4.74 9.09-4.74 9.09 2.12 9.09 4.74"/><path fill="#fff" d="M301.9 147.05c-.84 0-1.65-.44-2.1-1.22-17.73-31.2-3.01-51.45 7.25-57.8a2.4 2.4 0 1 1 2.53 4.09c-1.1.69-25.39 16.51-5.59 51.33a2.4 2.4 0 0 1-2.09 3.6"/><path fill="#ffd34e" d="M32.47 140.95c8.11 20.83-8.18 46.6-36.37 57.58-28.19 10.97-57.62 2.99-65.72-17.84s8.18-46.6 36.37-57.58c28.19-10.97 57.62-2.99 65.72 17.84"/><path fill="#fcfff5" d="m6.8 179.83-19.96-16.28c-2.05-2.9-5.26-1.64-4.83 1.9l-3.86 26.22c-.29 3.8 3.56 6.3 8.3 5.36 4.58-.91 10.75-3.02 17.98-7.69 3.99-2.57 5.09-6.96 2.37-9.51m14.36-31.23-31.34 9.1c-4.56.54-5.36 3.25-1.21 4.07l25.99 11.16c3.95 1.43 9.3-.54 11.49-4.24a28.28 28.28 0 0 0 3.84-15.35c-.09-3.68-4.13-5.87-8.77-4.74m-24.32-20.29-11.38 25.38c-2.51 3.44-.1 4.88 3.62 2.17l29.85-15.06c4.24-2.38 5.73-6.84 3.19-9.59-2.46-2.66-6.74-5.65-14.14-7.67-4.08-1.11-9.22 1.08-11.14 4.77"/><path fill="#ffd34e" d="M47.03 178.28a63.48 63.48 0 0 0-14.16-40.33 30.6 30.6 0 0 1 3.02 5.86c8.28 21.45-8.33 48-37.08 59.31-28.74 11.31-58.75 3.08-67.02-18.37a3.7 3.7 0 0 1-.14-.39c2.87 31.12 27.54 55.44 57.55 55.44 1.88 0 3.73-.1 5.56-.29 3.83-.4 7.54.96 10.5 3.42a11.37 11.37 0 0 0 7.3 2.57c5.98 0 10.82-4.39 10.82-9.8v-.07a16.26 16.26 0 0 1 4.82-11.92c11.58-11.24 18.84-27.43 18.84-45.42"/></g></svg>
